PathFileType	4	(X/Y/Z)	RBDS021static.trc
DataRate	CameraRate	NumFrames	NumMarkers	Units	OrigDataRate	OrigDataStartFrame	OrigNumFrames
150.000000	150.000000	4	48	mm	150.000000	112	150
Frame#	Time	L.Ankle			L.Ankle.Medial			L.ASIS			L.GTR			L.Heel.Bottom			L.Heel.Lateral			L.Heel.Top			L.HF			L.Iliac.Crest			L.Knee			L.Knee.Medial			L.MT1			L.MT2			L.MT5			L.PSIS			L.Shank.Bottom.Lateral			L.Shank.Bottom.Medial			L.Shank.Top.Lateral			L.Shank.Top.Medial			L.Thigh.Bottom.Lateral			L.Thigh.Bottom.Medial			L.Thigh.Top.Lateral			L.Thigh.Top.Medial			L.TT			R.Ankle			R.Ankle.Medial			R.ASIS			R.GTR			R.Heel.Bottom			R.Heel.Lateral			R.Heel.Top			R.HF			R.Iliac.Crest			R.Knee			R.Knee.Medial			R.MT1			R.MT2			R.MT5			R.PSIS			R.Shank.Bottom.Lateral			R.Shank.Bottom.Medial			R.Shank.Top.Lateral			R.Shank.Top.Medial			R.Thigh.Bottom.Lateral			R.Thigh.Bottom.Medial			R.Thigh.Top.Lateral			R.Thigh.Top.Medial			R.TT			
		X1	Y1	Z1	X2	Y2	Z2	X3	Y3	Z3	X4	Y4	Z4	X5	Y5	Z5	X6	Y6	Z6	X7	Y7	Z7	X8	Y8	Z8	X9	Y9	Z9	X10	Y10	Z10	X11	Y11	Z11	X12	Y12	Z12	X13	Y13	Z13	X14	Y14	Z14	X15	Y15	Z15	X16	Y16	Z16	X17	Y17	Z17	X18	Y18	Z18	X19	Y19	Z19	X20	Y20	Z20	X21	Y21	Z21	X22	Y22	Z22	X23	Y23	Z23	X24	Y24	Z24	X25	Y25	Z25	X26	Y26	Z26	X27	Y27	Z27	X28	Y28	Z28	X29	Y29	Z29	X30	Y30	Z30	X31	Y31	Z31	X32	Y32	Z32	X33	Y33	Z33	X34	Y34	Z34	X35	Y35	Z35	X36	Y36	Z36	X37	Y37	Z37	X38	Y38	Z38	X39	Y39	Z39	X40	Y40	Z40	X41	Y41	Z41	X42	Y42	Z42	X43	Y43	Z43	X44	Y44	Z44	X45	Y45	Z45	X46	Y46	Z46	X47	Y47	Z47	X48	Y48	Z48	

113	0.7466666666666667	713.30078125	110.8878707885742	1037.821655273438	729.8011474609375	122.4401473999023	1118.955444335938	864.5111694335938	1002.356506347656	1113.38671875	788.5744018554688	920.4456176757813	1039.127807617188	635.9560546875	40.11417007446289	1086.031982421875	665.5230102539063	61.44447708129883	1041.337280273438	645.6526489257813	86.82503509521484	1086.01513671875	733.3948364257813	455.3220825195313	1020.496826171875	777.0419311523438	1061.393432617188	1063.188842773438	753.4395751953125	533.1156005859375	1028.34619140625	726.0088500976563	504.0072631835938	1155.851928710938	851.7683715820313	57.24090576171875	1126.752319335938	863.9273071289063	62.54382705688477	1082.450073242188	821.5059814453125	47.73366546630859	1012.8603515625	680.7628173828125	1023.034790039063	1190.88232421875	710.7789306640625	183.2727966308594	1028.885620117188	668.6625366210938	186.7111358642578	1064.80126953125	704.5883178710938	262.528564453125	1015.263061523438	663.439697265625	266.2821655273438	1049.785522460938	761.6862182617188	657.5957641601563	1022.217224121094	699.30224609375	668.4310913085938	1055.711669921875	773.9964599609375	766.8193969726563	1015.181274414063	714.4202270507813	777.438720703125	1047.623413085938	788.5308837890625	437.9533081054688	1074.423217773438	707.1619262695313	103.1907043457031	1422.3896484375	731.70947265625	124.3981475830078	1341.378295898438	866.8094482421875	1004.287414550781	1338.047485351563	794.6310424804688	919.1416015625	1410.203369140625	635.0703735351563	40.51874923706055	1372.270141601563	662.7741088867188	59.5091667175293	1417.438720703125	643.6277465820313	85.03185272216797	1372.889770507813	739.120361328125	461.5427551269531	1432.372802734375	796.8875732421875	1059.61376953125	1385.090942382813	756.9205932617188	534.715576171875	1419.72509765625	748.6753540039063	507.320068359375	1287.308715820313	845.0548706054688	58.07106399536133	1333.574096679688	860.1967163085938	68.17601776123047	1384.896118164063	823.0750732421875	50.47943496704102	1446.064453125	680.3407592773438	1014.264526367188	1267.76318359375	694.4429321289063	186.6695861816406	1426.628540039063	664.5099487304688	193.9268951416016	1385.661865234375	695.0635375976563	270.7829895019531	1439.542724609375	660.6885986328125	273.5835266113281	1398.51708984375	765.6981811523438	662.7586059570313	1426.514404296875	701.7924194335938	665.6990966796875	1389.06689453125	766.9197387695313	772.336181640625	1426.102783203125	708.0232543945313	774.9343872070313	1388.261840820313	796.2171630859375	435.2003173828125	1375.099731445313	
114	0.7533333333333334	713.3052368164063	110.8967132568359	1037.825927734375	729.7994995117188	122.421630859375	1118.932861328125	864.5416259765625	1002.34375	1113.4052734375	788.611572265625	920.448486328125	1039.127197265625	635.953857421875	40.11166000366211	1086.033325195313	665.5150756835938	61.44792175292969	1041.339111328125	645.6546630859375	86.82752990722656	1086.021850585938	733.4309692382813	455.3133239746094	1020.500366210938	777.0596313476563	1061.37451171875	1063.180786132813	753.45654296875	533.129638671875	1028.34716796875	726.00634765625	504.0202026367188	1155.86279296875	851.7757568359375	57.24636077880859	1126.750122070313	863.9287719726563	62.53416442871094	1082.44189453125	821.5074462890625	47.73083114624023	1012.865966796875	680.7704467773438	1023.034973144531	1190.885375976563	710.7857055664063	183.2644958496094	1028.877319335938	668.6702880859375	186.7073211669922	1064.805053710938	704.6006469726563	262.5295104980469	1015.258605957031	663.4483032226563	266.2843627929688	1049.776000976563	761.7103881835938	657.5963134765625	1022.226257324219	699.3328857421875	668.42724609375	1055.686767578125	774.0296020507813	766.8146362304688	1015.193176269531	714.4513549804688	777.44287109375	1047.617431640625	788.5401611328125	437.9589538574219	1074.422729492188	707.1627197265625	103.2026672363281	1422.400390625	731.72607421875	124.3994216918945	1341.387451171875	866.8079223632813	1004.2919921875	1338.063354492188	794.6189575195313	919.1402587890625	1410.213623046875	635.0709838867188	40.53026580810547	1372.265625	662.77490234375	59.50678634643555	1417.428588867188	643.6284790039063	85.02617645263672	1372.893310546875	739.1204223632813	461.5303039550781	1432.369750976563	796.8528442382813	1059.61328125	1385.085083007813	756.9155883789063	534.710693359375	1419.722412109375	748.6962280273438	507.3144836425781	1287.31494140625	845.0679321289063	58.07560348510742	1333.57763671875	860.201904296875	68.18132019042969	1384.904418945313	823.08251953125	50.48426055908203	1446.067260742188	680.3484497070313	1014.261779785156	1267.762329101563	694.4404296875	186.6628112792969	1426.624755859375	664.5177001953125	193.9204254150391	1385.662963867188	695.0703735351563	270.7797546386719	1439.532348632813	660.692138671875	273.5905456542969	1398.508178710938	765.6822509765625	662.7622680664063	1426.519409179688	701.79736328125	665.6996459960938	1389.077026367188	766.9137573242188	772.3499145507813	1426.108276367188	708.0289306640625	774.9308471679688	1388.252319335938	796.2205810546875	435.201416015625	1375.097534179688	
115	0.76	713.2984619140625	110.9018478393555	1037.81884765625	729.7981567382813	122.426025390625	1118.937866210938	864.5638427734375	1002.3466796875	1113.416625976563	788.6399536132813	920.4507446289063	1039.129638671875	635.9566040039063	40.11470413208008	1086.026000976563	665.5115966796875	61.44277954101563	1041.337646484375	645.6646728515625	86.82559967041016	1086.016479492188	733.4537963867188	455.3150939941406	1020.5048828125	777.0774536132813	1061.370483398438	1063.1650390625	753.4811401367188	533.1245727539063	1028.352783203125	726.03125	504.019287109375	1155.849975585938	851.769287109375	57.24942779541016	1126.748168945313	863.92578125	62.5483512878418	1082.426025390625	821.4981689453125	47.73577499389648	1012.867858886719	680.780029296875	1023.038452148438	1190.880004882813	710.7904052734375	183.2721099853516	1028.8759765625	668.6797485351563	186.7039947509766	1064.7890625	704.6209716796875	262.5262145996094	1015.258605957031	663.4616088867188	266.2829895019531	1049.781127929688	761.7408447265625	657.6014404296875	1022.228576660156	699.3594360351563	668.4180297851563	1055.70361328125	774.0535888671875	766.8241577148438	1015.193786621094	714.4874267578125	777.4404907226563	1047.606079101563	788.5643920898438	437.9559020996094	1074.430908203125	707.161376953125	103.1977081298828	1422.40478515625	731.7081298828125	124.3923950195313	1341.38525390625	866.7974243164063	1004.299926757813	1338.090698242188	794.6152954101563	919.1414794921875	1410.21435546875	635.0728759765625	40.52138900756836	1372.263671875	662.7781982421875	59.51322174072266	1417.436889648438	643.631103515625	85.03294372558594	1372.885864257813	739.1216430664063	461.5420837402344	1432.373657226563	796.8328247070313	1059.609008789063	1385.081298828125	756.920654296875	534.71728515625	1419.729248046875	748.7037963867188	507.3139953613281	1287.317260742188	845.0636596679688	58.07222747802734	1333.5693359375	860.2062377929688	68.170166015625	1384.899047851563	823.0797729492188	50.48272323608398	1446.062744140625	680.362060546875	1014.267883300781	1267.749877929688	694.4456787109375	186.6654815673828	1426.62548828125	664.510498046875	193.9237213134766	1385.662963867188	695.0626220703125	270.7786254882813	1439.5302734375	660.6874389648438	273.5943603515625	1398.506103515625	765.693603515625	662.767333984375	1426.518920898438	701.7951049804688	665.7112426757813	1389.06396484375	766.9116821289063	772.3502197265625	1426.111450195313	708.0202026367188	774.9434204101563	1388.25048828125	796.2217407226563	435.1907958984375	1375.09228515625	
116	0.7666666666666667	713.2971801757813	110.893440246582	1037.820190429688	729.8036499023438	122.4269332885742	1118.941040039063	864.5874633789063	1002.3369140625	1113.438232421875	788.6734619140625	920.4549560546875	1039.126708984375	635.9561767578125	40.11388778686523	1086.029907226563	665.5196533203125	61.44815063476563	1041.337280273438	645.6631469726563	86.82975769042969	1086.022705078125	733.4823608398438	455.3238830566406	1020.517272949219	777.1112670898438	1061.351440429688	1063.186645507813	753.4998779296875	533.1272583007813	1028.361450195313	726.0424194335938	504.0228576660156	1155.858642578125	851.76416015625	57.23615264892578	1126.744018554688	863.9216918945313	62.54462432861328	1082.425659179688	821.4981689453125	47.74061965942383	1012.854675292969	680.7972412109375	1023.032836914063	1190.872436523438	710.8021850585938	183.2627716064453	1028.89453125	668.6798095703125	186.7088470458984	1064.7939453125	704.6284790039063	262.529296875	1015.259826660156	663.4695434570313	266.2847900390625	1049.768798828125	761.7691650390625	657.5908203125	1022.243469238281	699.3821411132813	668.4219970703125	1055.715576171875	774.0922241210938	766.81982421875	1015.185791015625	714.5087280273438	777.4476928710938	1047.608520507813	788.5918579101563	437.9608154296875	1074.437622070313	707.1593627929688	103.1993103027344	1422.395874023438	731.71484375	124.4006729125977	1341.383056640625	866.791748046875	1004.290161132813	1338.10400390625	794.6077270507813	919.14501953125	1410.224243164063	635.0709228515625	40.52357482910156	1372.265625	662.7723388671875	59.51191329956055	1417.437133789063	643.6273803710938	85.03095245361328	1372.885498046875	739.1143798828125	461.5435791015625	1432.381713867188	796.8202514648438	1059.596923828125	1385.087890625	756.9091186523438	534.7264404296875	1419.736328125	748.73583984375	507.3184204101563	1287.334106445313	845.0554809570313	58.04582977294922	1333.580444335938	860.2025756835938	68.17890167236328	1384.89990234375	823.07373046875	50.47885131835938	1446.0732421875	680.3643798828125	1014.26416015625	1267.7529296875	694.43994140625	186.6632385253906	1426.630004882813	664.5068359375	193.9267883300781	1385.65966796875	695.063232421875	270.7844848632813	1439.536376953125	660.6881103515625	273.59130859375	1398.506469726563	765.6766967773438	662.77392578125	1426.528564453125	701.8006591796875	665.7124633789063	1389.064331054688	766.9035034179688	772.350830078125	1426.109130859375	708.0210571289063	774.933349609375	1388.250610351563	796.2303466796875	435.1936645507813	1375.09912109375	
